<svg width="72" height="38" viewBox="0 0 72 38" fill="none" xmlns="http://www.w3.org/2000/svg">
<path d="M13.5992 17C13.1992 17 12.9076 16.9167 12.7242 16.75C12.5576 16.5667 12.4742 16.2917 12.4742 15.925V1.1C12.4742 0.733332 12.5576 0.458332 12.7242 0.274999C12.9076 0.0916663 13.1992 -1.78814e-07 13.5992 -1.78814e-07H15.4742C15.8909 -1.78814e-07 16.1826 0.0916663 16.3492 0.274999C16.5159 0.441666 16.5992 0.716666 16.5992 1.1V13.975H23.6492C24.0492 13.975 24.3242 14.0583 24.4742 14.225C24.6242 14.3917 24.6992 14.6667 24.6992 15.05V15.95C24.6992 16.3333 24.6242 16.6083 24.4742 16.775C24.3242 16.925 24.0492 17 23.6492 17H13.5992ZM25.8688 17C25.4688 17 25.1771 16.9167 24.9938 16.75C24.8271 16.5667 24.7438 16.2917 24.7438 15.925V1.1C24.7438 0.733332 24.8271 0.458332 24.9938 0.274999C25.1771 0.0916663 25.4688 -1.78814e-07 25.8688 -1.78814e-07H27.7438C28.1604 -1.78814e-07 28.4521 0.0916663 28.6188 0.274999C28.7854 0.441666 28.8688 0.716666 28.8688 1.1V15.925C28.8688 16.2917 28.7854 16.5667 28.6188 16.75C28.4521 16.9167 28.1604 17 27.7438 17H25.8688ZM31.0338 17C30.6338 17 30.3421 16.9167 30.1588 16.75C29.9921 16.5667 29.9088 16.2917 29.9088 15.925V1.075C29.9088 0.708332 29.9921 0.441666 30.1588 0.274999C30.3421 0.0916663 30.6421 -1.78814e-07 31.0588 -1.78814e-07H32.6088C32.8921 -1.78814e-07 33.1005 0.0416664 33.2338 0.125C33.3838 0.191667 33.5421 0.333333 33.7088 0.549999L40.7088 10.425V1.1C40.7088 0.733332 40.7921 0.458332 40.9588 0.274999C41.1421 0.0916663 41.4338 -1.78814e-07 41.8338 -1.78814e-07H43.7088C44.1255 -1.78814e-07 44.4171 0.0916663 44.5838 0.274999C44.7505 0.441666 44.8338 0.716666 44.8338 1.1V15.925C44.8338 16.2917 44.7505 16.5667 44.5838 16.75C44.4171 16.9167 44.1255 17 43.7088 17H42.1338C41.8671 17 41.6588 16.9667 41.5088 16.9C41.3755 16.8167 41.2255 16.6667 41.0588 16.45L34.0338 6.6V15.925C34.0338 16.2917 33.9505 16.5667 33.7838 16.75C33.6171 16.9167 33.3255 17 32.9088 17H31.0338ZM59.8143 16.175C59.9143 16.2917 59.9643 16.425 59.9643 16.575C59.9643 16.8583 59.8143 17 59.5143 17H56.3893C56.1893 17 56.0309 16.9833 55.9143 16.95C55.8143 16.9 55.7143 16.8167 55.6143 16.7L50.0893 9.45L50.0143 9.35V15.925C50.0143 16.2917 49.9309 16.5667 49.7643 16.75C49.5976 16.9167 49.3059 17 48.8893 17H47.0143C46.6143 17 46.3226 16.9167 46.1393 16.75C45.9726 16.5667 45.8893 16.2917 45.8893 15.925V1.1C45.8893 0.733332 45.9726 0.458332 46.1393 0.274999C46.3226 0.0916663 46.6143 -1.78814e-07 47.0143 -1.78814e-07H48.8893C49.3059 -1.78814e-07 49.5976 0.0916663 49.7643 0.274999C49.9309 0.441666 50.0143 0.716666 50.0143 1.1V7.55L50.0893 7.45L55.4393 0.324999C55.5393 0.191666 55.6393 0.108333 55.7393 0.0749989C55.8559 0.0249995 56.0309 -1.78814e-07 56.2643 -1.78814e-07H59.3393C59.6393 -1.78814e-07 59.7893 0.141666 59.7893 0.424999C59.7893 0.558332 59.7393 0.691666 59.6393 0.825L53.7143 8.45L59.8143 16.175ZM7.73066 37.375C6.43066 37.375 5.18066 37.2417 3.98066 36.975C2.79733 36.6917 1.839 36.3 1.10566 35.8C0.855664 35.6167 0.730664 35.45 0.730664 35.3C0.730664 35.2 0.772331 35.0833 0.855664 34.95L1.88066 33.325C1.98066 33.1583 2.089 33.075 2.20566 33.075C2.30566 33.075 2.43066 33.125 2.58066 33.225C3.19733 33.575 3.90566 33.8583 4.70566 34.075C5.50566 34.2917 6.314 34.4 7.13066 34.4C8.09733 34.4 8.814 34.25 9.28066 33.95C9.74733 33.6333 9.98066 33.1417 9.98066 32.475C9.98066 32.025 9.864 31.6583 9.63066 31.375C9.414 31.0917 9.08066 30.8417 8.63066 30.625C8.19733 30.4083 7.52233 30.125 6.60566 29.775C5.539 29.375 4.63066 28.9667 3.88066 28.55C3.14733 28.1333 2.539 27.6 2.05566 26.95C1.589 26.2833 1.35566 25.475 1.35566 24.525C1.35566 22.9417 1.93066 21.7333 3.08066 20.9C4.23066 20.05 5.74733 19.625 7.63066 19.625C10.114 19.625 12.014 20.0917 13.3307 21.025C13.5807 21.225 13.7057 21.3917 13.7057 21.525C13.7057 21.625 13.664 21.7417 13.5807 21.875L12.5557 23.5C12.4557 23.6667 12.3473 23.75 12.2307 23.75C12.1307 23.75 12.0057 23.7 11.8557 23.6C10.839 22.9333 9.60566 22.6 8.15566 22.6C6.35566 22.6 5.45566 23.25 5.45566 24.55C5.45566 24.9833 5.55566 25.3417 5.75566 25.625C5.97233 25.8917 6.264 26.125 6.63066 26.325C6.99733 26.5083 7.57233 26.75 8.35566 27.05L9.05566 27.325C10.2723 27.8083 11.2307 28.2667 11.9307 28.7C12.6307 29.1167 13.164 29.6333 13.5307 30.25C13.914 30.8667 14.1057 31.6583 14.1057 32.625C14.1057 34.075 13.5557 35.2333 12.4557 36.1C11.3723 36.95 9.79733 37.375 7.73066 37.375ZM28.5721 36.175C28.6721 36.2917 28.7221 36.425 28.7221 36.575C28.7221 36.8583 28.5721 37 28.2721 37H25.1471C24.9471 37 24.7887 36.9833 24.6721 36.95C24.5721 36.9 24.4721 36.8167 24.3721 36.7L18.8471 29.45L18.7721 29.35V35.925C18.7721 36.2917 18.6887 36.5667 18.5221 36.75C18.3554 36.9167 18.0637 37 17.6471 37H15.7721C15.3721 37 15.0804 36.9167 14.8971 36.75C14.7304 36.5667 14.6471 36.2917 14.6471 35.925V21.1C14.6471 20.7333 14.7304 20.4583 14.8971 20.275C15.0804 20.0917 15.3721 20 15.7721 20H17.6471C18.0637 20 18.3554 20.0917 18.5221 20.275C18.6887 20.4417 18.7721 20.7167 18.7721 21.1V27.55L18.8471 27.45L24.1971 20.325C24.2971 20.1917 24.3971 20.1083 24.4971 20.075C24.6137 20.025 24.7887 20 25.0221 20H28.0971C28.3971 20 28.5471 20.1417 28.5471 20.425C28.5471 20.5583 28.4971 20.6917 28.3971 20.825L22.4721 28.45L28.5721 36.175ZM30.4586 37C30.0586 37 29.7669 36.9167 29.5836 36.75C29.4169 36.5667 29.3336 36.2917 29.3336 35.925V21.1C29.3336 20.7333 29.4169 20.4583 29.5836 20.275C29.7669 20.0917 30.0586 20 30.4586 20H32.3336C32.7503 20 33.0419 20.0917 33.2086 20.275C33.3753 20.4417 33.4586 20.7167 33.4586 21.1V35.925C33.4586 36.2917 33.3753 36.5667 33.2086 36.75C33.0419 36.9167 32.7503 37 32.3336 37H30.4586ZM35.6236 37C35.2236 37 34.932 36.9167 34.7486 36.75C34.582 36.5667 34.4986 36.2917 34.4986 35.925V21.1C34.4986 20.7333 34.582 20.4583 34.7486 20.275C34.932 20.0917 35.2236 20 35.6236 20H37.4986C37.9153 20 38.207 20.0917 38.3736 20.275C38.5403 20.4417 38.6236 20.7167 38.6236 21.1V33.975H45.6736C46.0736 33.975 46.3486 34.0583 46.4986 34.225C46.6486 34.3917 46.7236 34.6667 46.7236 35.05V35.95C46.7236 36.3333 46.6486 36.6083 46.4986 36.775C46.3486 36.925 46.0736 37 45.6736 37H35.6236ZM47.8932 37C47.4932 37 47.2015 36.9167 47.0182 36.75C46.8515 36.5667 46.7682 36.2917 46.7682 35.925V21.1C46.7682 20.7333 46.8515 20.4583 47.0182 20.275C47.2015 20.0917 47.4932 20 47.8932 20H49.7682C50.1848 20 50.4765 20.0917 50.6432 20.275C50.8098 20.4417 50.8932 20.7167 50.8932 21.1V33.975H57.9432C58.3432 33.975 58.6182 34.0583 58.7682 34.225C58.9182 34.3917 58.9932 34.6667 58.9932 35.05V35.95C58.9932 36.3333 58.9182 36.6083 58.7682 36.775C58.6182 36.925 58.3432 37 57.9432 37H47.8932ZM64.9279 37.375C63.6279 37.375 62.3779 37.2417 61.1779 36.975C59.9946 36.6917 59.0363 36.3 58.3029 35.8C58.0529 35.6167 57.9279 35.45 57.9279 35.3C57.9279 35.2 57.9696 35.0833 58.0529 34.95L59.0779 33.325C59.1779 33.1583 59.2863 33.075 59.4029 33.075C59.5029 33.075 59.6279 33.125 59.7779 33.225C60.3946 33.575 61.1029 33.8583 61.9029 34.075C62.7029 34.2917 63.5113 34.4 64.3279 34.4C65.2946 34.4 66.0113 34.25 66.4779 33.95C66.9446 33.6333 67.1779 33.1417 67.1779 32.475C67.1779 32.025 67.0613 31.6583 66.8279 31.375C66.6113 31.0917 66.2779 30.8417 65.8279 30.625C65.3946 30.4083 64.7196 30.125 63.8029 29.775C62.7363 29.375 61.8279 28.9667 61.0779 28.55C60.3446 28.1333 59.7363 27.6 59.2529 26.95C58.7863 26.2833 58.5529 25.475 58.5529 24.525C58.5529 22.9417 59.1279 21.7333 60.2779 20.9C61.4279 20.05 62.9446 19.625 64.8279 19.625C67.3113 19.625 69.2113 20.0917 70.5279 21.025C70.7779 21.225 70.9029 21.3917 70.9029 21.525C70.9029 21.625 70.8613 21.7417 70.7779 21.875L69.7529 23.5C69.6529 23.6667 69.5446 23.75 69.4279 23.75C69.3279 23.75 69.2029 23.7 69.0529 23.6C68.0363 22.9333 66.8029 22.6 65.3529 22.6C63.5529 22.6 62.6529 23.25 62.6529 24.55C62.6529 24.9833 62.7529 25.3417 62.9529 25.625C63.1696 25.8917 63.4613 26.125 63.8279 26.325C64.1946 26.5083 64.7696 26.75 65.5529 27.05L66.2529 27.325C67.4696 27.8083 68.4279 28.2667 69.1279 28.7C69.8279 29.1167 70.3613 29.6333 70.7279 30.25C71.1113 30.8667 71.3029 31.6583 71.3029 32.625C71.3029 34.075 70.7529 35.2333 69.6529 36.1C68.5696 36.95 66.9946 37.375 64.9279 37.375Z" fill="#DE9E36"/>
</svg>
